<svg width="92" height="92" viewBox="0 0 92 92" fill="none" xmlns="http://www.w3.org/2000/svg">
    <g filter="url(#filter0_i_122_77)">
        <rect x="12" y="12" width="69" height="69" rx="8" fill="#0C0C0C" fill-opacity="0.25" />
    </g>
    <g filter="url(#filter1_d_122_77)">
        <rect x="15.8567" y="15.8572" width="61" height="61" rx="5" fill="#121212" />
        <g filter="url(#filter2_i_122_77)">
            <rect width="53" height="53" transform="matrix(1 0 0 -1 19.8567 72.8572)" fill="url(#paint0_linear_122_77)" />
        </g>
        <path fill-rule="evenodd" clip-rule="evenodd" d="M15.8567 22.4666C15.8567 19.9209 17.9257 17.8572 20.4779 17.8572H72.2355C74.7877 17.8572 76.8567 19.9209 76.8567 22.4666V72.2478C76.8567 74.7935 74.7877 76.8572 72.2355 76.8572H20.4779C17.9257 76.8572 15.8567 74.7935 15.8567 72.2478V22.4666ZM20.4779 21.5447C19.9675 21.5447 19.5537 21.9574 19.5537 22.4666V72.2478C19.5537 72.7569 19.9675 73.1697 20.4779 73.1697H72.2355C72.7459 73.1697 73.1597 72.7569 73.1597 72.2478V22.4666C73.1597 21.9574 72.7459 21.5447 72.2355 21.5447H20.4779Z" fill="#0063BF" />
        <path fill-rule="evenodd" clip-rule="evenodd" d="M15.8567 20.4666C15.8567 17.9209 17.9257 15.8572 20.4779 15.8572H72.2355C74.7877 15.8572 76.8567 17.9209 76.8567 20.4666V70.2478C76.8567 72.7935 74.7877 74.8572 72.2355 74.8572H20.4779C17.9257 74.8572 15.8567 72.7935 15.8567 70.2478V20.4666ZM20.4779 19.5447C19.9675 19.5447 19.5537 19.9574 19.5537 20.4666V70.2478C19.5537 70.7569 19.9675 71.1697 20.4779 71.1697H72.2355C72.7459 71.1697 73.1597 70.7569 73.1597 70.2478V20.4666C73.1597 19.9574 72.7459 19.5447 72.2355 19.5447H20.4779Z" fill="url(#paint1_linear_122_77)" />
    </g>
    <path d="M39.9996 69.7144H52.9996L56.7139 75.2858H36.2853L39.9996 69.7144Z" fill="url(#paint2_linear_122_77)" />
    <defs>
        <filter id="filter0_i_122_77" x="12" y="12" width="69" height="69" filterUnits="userSpaceOnUse" color-interpolation-filters="sRGB">
            <feFlood flood-opacity="0" result="BackgroundImageFix" />
            <feBlend mode="normal" in="SourceGraphic" in2="BackgroundImageFix" result="shape" />
            <feColorMatrix in="SourceAlpha" type="matrix" values="0 0 0 0 0 0 0 0 0 0 0 0 0 0 0 0 0 0 127 0" result="hardAlpha" />
            <feOffset />
            <feGaussianBlur stdDeviation="7.5" />
            <feComposite in2="hardAlpha" operator="arithmetic" k2="-1" k3="1" />
            <feColorMatrix type="matrix" values="0 0 0 0 0 0 0 0 0 0 0 0 0 0 0 0 0 0 1 0" />
            <feBlend mode="normal" in2="shape" result="effect1_innerShadow_122_77" />
        </filter>
        <filter id="filter1_d_122_77" x="0.856689" y="0.857178" width="91.2858" height="91.2856" filterUnits="userSpaceOnUse" color-interpolation-filters="sRGB">
            <feFlood flood-opacity="0" result="BackgroundImageFix" />
            <feColorMatrix in="SourceAlpha" type="matrix" values="0 0 0 0 0 0 0 0 0 0 0 0 0 0 0 0 0 0 127 0" result="hardAlpha" />
            <feOffset />
            <feGaussianBlur stdDeviation="7.5" />
            <feColorMatrix type="matrix" values="0 0 0 0 0 0 0 0 0 0.4 0 0 0 0 1 0 0 0 0.25 0" />
            <feBlend mode="normal" in2="BackgroundImageFix" result="effect1_dropShadow_122_77" />
            <feBlend mode="normal" in="SourceGraphic" in2="effect1_dropShadow_122_77" result="shape" />
        </filter>
        <filter id="filter2_i_122_77" x="19.8567" y="19.8572" width="53" height="53" filterUnits="userSpaceOnUse" color-interpolation-filters="sRGB">
            <feFlood flood-opacity="0" result="BackgroundImageFix" />
            <feBlend mode="normal" in="SourceGraphic" in2="BackgroundImageFix" result="shape" />
            <feColorMatrix in="SourceAlpha" type="matrix" values="0 0 0 0 0 0 0 0 0 0 0 0 0 0 0 0 0 0 127 0" result="hardAlpha" />
            <feOffset />
            <feGaussianBlur stdDeviation="5" />
            <feComposite in2="hardAlpha" operator="arithmetic" k2="-1" k3="1" />
            <feColorMatrix type="matrix" values="0 0 0 0 0 0 0 0 0 0 0 0 0 0 0 0 0 0 1 0" />
            <feBlend mode="normal" in2="shape" result="effect1_innerShadow_122_77" />
        </filter>
        <linearGradient id="paint0_linear_122_77" x1="26.5" y1="0" x2="26.5" y2="53" gradientUnits="userSpaceOnUse">
            <stop stop-color="#2D4480" />
            <stop offset="1" stop-color="#1B1E26" stop-opacity="0" />
        </linearGradient>
        <linearGradient id="paint1_linear_122_77" x1="73.1597" y1="17.7009" x2="17.8474" y2="73.1553" gradientUnits="userSpaceOnUse">
            <stop stop-color="#6CB9FF" />
            <stop offset="1" stop-color="#0B8AFF" />
        </linearGradient>
        <linearGradient id="paint2_linear_122_77" x1="52.2117" y1="69.8885" x2="48.3492" y2="78.6278" gradientUnits="userSpaceOnUse">
            <stop stop-color="#6CB9FF" />
            <stop offset="1" stop-color="#0B8AFF" />
        </linearGradient>
    </defs>
</svg>
