<svg width="30" height="33" viewBox="0 0 30 33" fill="none" xmlns="http://www.w3.org/2000/svg">
    <path fill-rule="evenodd" clip-rule="evenodd" d="M13.3079 32.8626L10.2461 31.5394L1.77609 24.661L0 17.9473C0 17.9473 1.21675 10.915 5.73868 5.75796C5.73868 5.75796 12.9193 1.4137 18.2548 0C20.6932 2.34507 22.7343 4.78756 24.3567 7.30199C27.5566 12.278 27.7781 15.2665 27.7781 15.2665C27.7781 15.2665 26.4742 23.9659 22.1121 30.8787L13.3079 32.8626Z" fill="url(#paint0_radial_29_314)" />
    <path fill-rule="evenodd" clip-rule="evenodd" d="M5.73853 5.75797L11.1322 12.9821L12.1746 13.1975L20.5066 12.5911L23.3105 5.77245C23.3105 5.77245 21.3165 2.47261 18.2547 0C18.2547 0 11.154 2.20291 5.73853 5.75797Z" fill="url(#paint1_radial_29_314)" />
    <path fill-rule="evenodd" clip-rule="evenodd" d="M11.132 12.9822L4.29646 18.1012L0.526367 15.7825C0.526367 15.7825 2.04458 10.611 5.7384 5.75806L11.132 12.9822Z" fill="url(#paint2_radial_29_314)" />
    <path fill-rule="evenodd" clip-rule="evenodd" d="M4.29675 18.1047L2.695 20.9213L0 17.9472L0.83901 14.4954L4.29675 18.1047Z" fill="#B5EFFF" />
    <path fill-rule="evenodd" clip-rule="evenodd" d="M10.0246 11.4998L8.93494 14.6294L12.1748 13.1976L10.0246 11.4998Z" fill="#D2F5FF" />
    <path fill-rule="evenodd" clip-rule="evenodd" d="M14.4012 19.6233L22.1121 30.875C22.1121 30.875 28.6027 21.5946 27.6874 14.1188L20.5068 12.5911L14.4012 19.6233Z" fill="url(#paint3_radial_29_314)" />
    <path fill-rule="evenodd" clip-rule="evenodd" d="M2.695 20.9213L3.57033 24.7261L1.77609 24.6573L0 17.9473L2.695 20.9213Z" fill="url(#paint4_radial_29_314)" />
    <path fill-rule="evenodd" clip-rule="evenodd" d="M1.77625 24.6572L3.57049 24.726L13.3081 32.8607L10.2463 31.5393L1.77625 24.6572Z" fill="url(#paint5_radial_29_314)" />
    <path fill-rule="evenodd" clip-rule="evenodd" d="M12.1747 13.3459L22.112 30.8751L13.3079 32.8608L3.57028 24.7261L2.69495 20.9213L4.29669 18.1047L8.93486 14.6293L12.1747 13.3459Z" fill="url(#paint6_radial_29_314)" />
    <path fill-rule="evenodd" clip-rule="evenodd" d="M27.6872 14.1189L20.5066 12.5912L23.3106 5.77246C23.3106 5.77246 27.0807 11.0182 27.6872 14.1189Z" fill="url(#paint7_radial_29_314)" />
    <path fill-rule="evenodd" clip-rule="evenodd" d="M18.2549 0C18.2549 0 7.5076 3.63832 6.17463 6.33539L10.0246 11.4996C10.0246 11.4996 5.88769 6.77525 5.44821 6.77525C5.00873 6.77525 0.88269 14.6293 0.88269 14.6293C0.88269 14.6293 2.20477 8.99987 5.73878 5.75977C5.73878 5.75796 11.5537 1.51144 18.2549 0Z" fill="#D2F5FF" />
    <path fill-rule="evenodd" clip-rule="evenodd" d="M12.1747 13.1975C12.1747 13.1975 20.0309 12.5278 20.2125 12.4536C20.3941 12.3794 23.3106 5.77246 23.3106 5.77246C23.3106 5.77246 20.681 12.392 20.7028 12.5133C20.7246 12.6346 27.6582 13.9614 27.6582 13.9614L27.6909 14.1225C27.6909 14.1225 21.066 12.7414 20.2742 12.7106C19.4824 12.6798 12.1747 13.346 12.1747 13.346L8.93486 14.8158C8.93486 14.8158 4.67443 18.045 4.68169 18.1011C4.68896 18.1572 2.69495 20.9177 2.69495 20.9177L4.29669 18.1011L8.93486 14.6293L12.1747 13.1975Z" fill="#A5EBFE" />
    <path fill-rule="evenodd" clip-rule="evenodd" d="M3.57025 24.7279C3.57025 24.7279 12.8393 32.3485 13.3078 32.553C13.7764 32.7576 22.112 30.875 22.112 30.875L13.3078 32.8662L3.24336 24.7207L1.79053 24.6646C1.79053 24.6646 3.01091 24.641 3.14529 24.5397C3.27968 24.4383 2.70944 20.9194 2.70944 20.9194L3.57025 24.7279Z" fill="#6DDFFE" />
    <path fill-rule="evenodd" clip-rule="evenodd" d="M12.1746 13.3458L20.699 12.5132L15.2219 18.7201L12.1746 13.3458Z" fill="url(#paint8_radial_29_314)" />
    <path style="mix-blend-mode:screen" opacity="0.2" fill-rule="evenodd" clip-rule="evenodd" d="M12.1747 13.3459L8.93486 14.6293L4.29669 18.1011L2.69495 20.9213L3.57028 24.7225L13.3079 32.8571L22.112 30.866L12.1747 13.3459ZM14.5283 31.2353C12.5161 31.0995 8.15033 27.9626 6.50863 26.167C4.86693 24.3713 3.86448 21.6001 3.57391 20.9647C3.28334 20.3294 8.33193 15.2737 11.1359 15.6158C13.9399 15.9579 21.5018 29.7999 21.0878 30.5909C21.0878 30.5909 16.5368 31.371 14.5283 31.2353Z" fill="url(#paint9_radial_29_314)" />
    <path style="mix-blend-mode:screen" opacity="0.2" fill-rule="evenodd" clip-rule="evenodd" d="M16.0174 18.7202C15.843 19.1184 21.3057 28.8695 21.7924 29.2333C22.2791 29.5972 23.6375 28.4188 23.6375 28.4188L22.112 30.8805L15.2111 18.7256L20.2633 12.7161L27.6872 14.1189V16.5788C27.6872 16.5788 27.088 14.3741 26.703 14.1189C26.318 13.8637 22.1992 13.4655 21.4546 13.6555C20.71 13.8456 16.5949 17.4097 16.0174 18.7202Z" fill="url(#paint10_linear_29_314)" />
    <path style="mix-blend-mode:screen" opacity="0.41" fill-rule="evenodd" clip-rule="evenodd" d="M6.17468 6.33539C6.17468 6.33539 10.8564 12.2364 12.4037 12.6472C13.951 13.0581 18.8761 12.6038 19.8495 11.3621C20.8229 10.1203 22.7551 6.23764 22.3919 5.09184C22.0287 3.94604 18.255 0 18.255 0C20.4462 1.80396 22.1464 3.74512 23.3108 5.77245L20.5069 12.3088L12.1749 13.2138L10.0247 11.4996L6.17468 6.33539Z" fill="url(#paint11_linear_29_314)" />
    <path fill-rule="evenodd" clip-rule="evenodd" d="M17.3943 30.1113C17.3943 30.1493 17.3717 30.1864 17.3294 30.2179C17.2871 30.2495 17.227 30.2741 17.1566 30.2886C17.0863 30.3031 17.0088 30.3069 16.9342 30.2995C16.8595 30.2921 16.7909 30.2738 16.737 30.247C16.6832 30.2201 16.6465 30.186 16.6317 30.1487C16.6168 30.1115 16.6244 30.0729 16.6536 30.0379C16.6827 30.0028 16.7321 29.9729 16.7954 29.9518C16.8587 29.9307 16.9331 29.9194 17.0093 29.9194C17.1114 29.9194 17.2093 29.9396 17.2815 29.9756C17.3537 30.0116 17.3943 30.0604 17.3943 30.1113Z" fill="#ABE7F8" />
    <path fill-rule="evenodd" clip-rule="evenodd" d="M14.2704 31.8796C14.271 31.9181 14.2483 31.9557 14.2054 31.9877C14.1625 32.0197 14.1013 32.0445 14.0298 32.0589C13.9582 32.0734 13.8796 32.0767 13.8041 32.0686C13.7286 32.0605 13.6598 32.0413 13.6066 32.0134C13.5533 31.9855 13.5181 31.9503 13.5055 31.9124C13.4929 31.8744 13.5035 31.8355 13.5359 31.8005C13.5683 31.7656 13.6211 31.7364 13.6873 31.7166C13.7535 31.6968 13.8301 31.6873 13.9071 31.6895C14.0051 31.6918 14.0975 31.7129 14.1652 31.7483C14.2328 31.7837 14.2705 31.8307 14.2704 31.8796Z" fill="#ABE7F8" />
    <path fill-rule="evenodd" clip-rule="evenodd" d="M20.8918 25.3414C20.8962 25.3797 20.8774 25.4179 20.8378 25.4508C20.7982 25.4838 20.7397 25.51 20.6699 25.5262C20.6 25.5424 20.522 25.5478 20.446 25.5417C20.3699 25.5356 20.2993 25.5182 20.2432 25.4918C20.1872 25.4655 20.1483 25.4314 20.1316 25.3939C20.1149 25.3564 20.1211 25.3173 20.1495 25.2816C20.1779 25.2459 20.2271 25.2153 20.2908 25.1936C20.3545 25.172 20.4298 25.1605 20.5068 25.1604C20.6053 25.1603 20.7 25.179 20.7716 25.2127C20.8432 25.2464 20.8862 25.2924 20.8918 25.3414Z" fill="#ABE7F8" />
    <path fill-rule="evenodd" clip-rule="evenodd" d="M15.981 31.6896C15.9802 31.7279 15.9563 31.7652 15.9126 31.7967C15.8688 31.8282 15.8071 31.8525 15.7354 31.8663C15.6637 31.8802 15.5853 31.8831 15.5104 31.8745C15.4354 31.866 15.3673 31.8465 15.3148 31.8185C15.2623 31.7905 15.2278 31.7553 15.2158 31.7175C15.2038 31.6796 15.2148 31.6408 15.2474 31.6061C15.28 31.5714 15.3327 31.5424 15.3987 31.5227C15.4647 31.5031 15.5411 31.4937 15.6178 31.4959C15.7171 31.4983 15.8105 31.5198 15.8784 31.556C15.9462 31.5922 15.983 31.6401 15.981 31.6896Z" fill="#ABE7F8" />
    <path fill-rule="evenodd" clip-rule="evenodd" d="M12.6759 29.9193C12.675 29.9552 12.646 29.9895 12.5951 30.0148C12.5442 30.0402 12.4755 30.0546 12.4035 30.0551C12.3319 30.0546 12.2636 30.0401 12.2133 30.0147C12.163 29.9893 12.1348 29.955 12.1348 29.9193C12.1348 29.8838 12.1631 29.8498 12.2135 29.8246C12.2639 29.7995 12.3323 29.7854 12.4035 29.7854C12.4752 29.7854 12.5439 29.7995 12.5949 29.8245C12.6459 29.8496 12.675 29.8837 12.6759 29.9193Z" fill="#ABE7F8" />
    <path fill-rule="evenodd" clip-rule="evenodd" d="M16.6276 28.0946C16.6284 28.1138 16.6176 28.1325 16.5967 28.1486C16.5758 28.1646 16.5458 28.1772 16.5105 28.1847C16.4752 28.1922 16.4362 28.1942 16.3985 28.1906C16.3608 28.187 16.3262 28.1778 16.2991 28.1643C16.2719 28.1507 16.2535 28.1335 16.2462 28.1147C16.2389 28.0959 16.243 28.0765 16.258 28.0589C16.273 28.0413 16.2983 28.0263 16.3305 28.0159C16.3627 28.0055 16.4004 28.0001 16.4388 28.0005C16.4886 28.001 16.5361 28.011 16.5713 28.0286C16.6065 28.0461 16.6267 28.0698 16.6276 28.0946Z" fill="#ABE7F8" />
    <path fill-rule="evenodd" clip-rule="evenodd" d="M11.3213 24.2356C11.3206 24.2541 11.3089 24.2721 11.2877 24.2874C11.2665 24.3026 11.2368 24.3144 11.2022 24.3212C11.1677 24.3281 11.1298 24.3297 11.0934 24.3259C11.057 24.322 11.0237 24.3129 10.9977 24.2997C10.9716 24.2865 10.954 24.2697 10.947 24.2515C10.94 24.2333 10.9439 24.2144 10.9583 24.1973C10.9727 24.1803 10.9969 24.1657 11.0279 24.1554C11.0589 24.1451 11.0952 24.1397 11.1324 24.1396C11.1575 24.1396 11.1824 24.1421 11.2056 24.147C11.2287 24.1518 11.2497 24.1589 11.2673 24.1679C11.2849 24.1768 11.2987 24.1874 11.308 24.199C11.3173 24.2106 11.3218 24.2231 11.3213 24.2356Z" fill="#ABE7F8" />
    <path d="M14.7392 29.3274C14.8435 29.3274 14.928 29.2853 14.928 29.2333C14.928 29.1813 14.8435 29.1392 14.7392 29.1392C14.6349 29.1392 14.5503 29.1813 14.5503 29.2333C14.5503 29.2853 14.6349 29.3274 14.7392 29.3274Z" fill="#ABE7F8" />
    <path fill-rule="evenodd" clip-rule="evenodd" d="M21.0661 19.924C21.0661 19.9426 21.055 19.9608 21.0343 19.9763C21.0135 19.9917 20.984 20.0038 20.9495 20.0109C20.915 20.018 20.877 20.0199 20.8404 20.0163C20.8037 20.0126 20.7701 20.0037 20.7437 19.9905C20.7173 19.9774 20.6993 19.9606 20.692 19.9423C20.6847 19.9241 20.6884 19.9051 20.7027 19.8879C20.717 19.8707 20.7412 19.856 20.7723 19.8457C20.8034 19.8354 20.8399 19.8298 20.8772 19.8298C20.9273 19.8298 20.9754 19.8397 21.0108 19.8574C21.0462 19.8751 21.0661 19.899 21.0661 19.924Z" fill="#ABE7F8" />
    <path fill-rule="evenodd" clip-rule="evenodd" d="M12.8648 30.8751C12.8648 30.8937 12.8537 30.9119 12.833 30.9274C12.8122 30.9429 12.7827 30.955 12.7482 30.9621C12.7137 30.9692 12.6757 30.9711 12.6391 30.9674C12.6024 30.9638 12.5688 30.9549 12.5424 30.9417C12.516 30.9285 12.498 30.9118 12.4907 30.8935C12.4834 30.8752 12.4871 30.8563 12.5014 30.8391C12.5157 30.8219 12.5399 30.8072 12.571 30.7969C12.6021 30.7865 12.6386 30.781 12.6759 30.781C12.726 30.781 12.7741 30.7909 12.8095 30.8086C12.8449 30.8262 12.8648 30.8502 12.8648 30.8751Z" fill="#ABE7F8" />
    <path fill-rule="evenodd" clip-rule="evenodd" d="M22.1462 28.947L22.693 23.0249L28.889 18.0828L29.5188 28.6448L25.9169 32.3995L22.1462 28.947Z" fill="url(#paint12_radial_29_314)" />
    <path fill-rule="evenodd" clip-rule="evenodd" d="M22.693 23.0249L25.2845 26.0745L27.4794 25.1098L28.8891 18.0828L22.693 23.0249Z" fill="url(#paint13_radial_29_314)" />
    <path fill-rule="evenodd" clip-rule="evenodd" d="M29.5189 28.6448L27.4795 25.1098L28.8892 18.0828L29.5189 28.6448Z" fill="url(#paint14_radial_29_314)" />
    <path fill-rule="evenodd" clip-rule="evenodd" d="M25.2845 26.0745L24.9602 31.0319L25.917 32.3995L29.5188 28.6448L27.4794 25.1099L25.2845 26.0745Z" fill="url(#paint15_radial_29_314)" />
    <defs>
        <radialGradient id="paint0_radial_29_314" cx="0" cy="0" r="1" gradientUnits="userSpaceOnUse" gradientTransform="translate(15.2586 1.2218) rotate(-7.96911) scale(71.9056 37.9199)">
            <stop offset="0.01" stop-color="#95E6FC" />
            <stop offset="0.06" stop-color="#93E5FC" />
            <stop offset="0.14" stop-color="#8DE4FC" />
            <stop offset="0.23" stop-color="#83E3FD" />
            <stop offset="0.33" stop-color="#76E1FE" />
            <stop offset="0.44" stop-color="#4FD9FF" />
            <stop offset="0.49" stop-color="#37D4FF" />
            <stop offset="0.99" stop-color="#5EDCFF" />
        </radialGradient>
        <radialGradient id="paint1_radial_29_314" cx="0" cy="0" r="1" gradientUnits="userSpaceOnUse" gradientTransform="translate(15.2356 6.8902) rotate(-1.90589) scale(12.5895 6.29522)">
            <stop offset="0.01" stop-color="#5EDCFF" />
            <stop offset="0.12" stop-color="#61DDFF" />
            <stop offset="0.64" stop-color="#6CDEFD" />
            <stop offset="0.99" stop-color="#70DEFC" />
        </radialGradient>
        <radialGradient id="paint2_radial_29_314" cx="0" cy="0" r="1" gradientUnits="userSpaceOnUse" gradientTransform="translate(5.88635 12.1794) rotate(-1.90589) scale(10.8454 5.4231)">
            <stop offset="0.01" stop-color="#4AD8FF" />
            <stop offset="0.21" stop-color="#61DCFE" />
            <stop offset="0.53" stop-color="#80E2FD" />
            <stop offset="0.8" stop-color="#93E5FC" />
            <stop offset="0.99" stop-color="#9AE9FF" />
        </radialGradient>
        <radialGradient id="paint3_radial_29_314" cx="0" cy="0" r="1" gradientUnits="userSpaceOnUse" gradientTransform="translate(21.3234 26.3801) rotate(-1.90589) scale(21.0526 10.5271)">
            <stop offset="0.01" stop-color="#4FD6FB" />
            <stop offset="0.21" stop-color="#4BCFF4" />
            <stop offset="0.5" stop-color="#42BFE2" />
            <stop offset="0.85" stop-color="#31A3C3" />
            <stop offset="0.9" stop-color="#2FA0BF" />
        </radialGradient>
        <radialGradient id="paint4_radial_29_314" cx="0" cy="0" r="1" gradientUnits="userSpaceOnUse" gradientTransform="translate(1.78806 21.3374) rotate(-1.90589) scale(4.96401 2.48219)">
            <stop offset="0.01" stop-color="#4AD8FF" />
            <stop offset="0.36" stop-color="#62DCFE" />
            <stop offset="0.73" stop-color="#75DFFC" />
            <stop offset="0.99" stop-color="#7CE0FC" />
        </radialGradient>
        <radialGradient id="paint5_radial_29_314" cx="0" cy="0" r="1" gradientUnits="userSpaceOnUse" gradientTransform="translate(7.54376 28.7579) rotate(-1.90589) scale(7.09248 3.5465)">
            <stop offset="0.01" stop-color="#4AD8FF" />
            <stop offset="0.1" stop-color="#4ED9FF" />
            <stop offset="0.63" stop-color="#61DBFD" />
            <stop offset="0.99" stop-color="#68DCFC" />
        </radialGradient>
        <radialGradient id="paint6_radial_29_314" cx="0" cy="0" r="1" gradientUnits="userSpaceOnUse" gradientTransform="translate(19.2236 30.0529) rotate(-1.90589) scale(29.1677 14.5849)">
            <stop offset="0.01" stop-color="#40D5FE" />
            <stop offset="0.18" stop-color="#3FD3FC" />
            <stop offset="0.42" stop-color="#3BCDF6" />
            <stop offset="0.7" stop-color="#35C5ED" />
            <stop offset="0.95" stop-color="#2FBCE3" />
        </radialGradient>
        <radialGradient id="paint7_radial_29_314" cx="0" cy="0" r="1" gradientUnits="userSpaceOnUse" gradientTransform="translate(24.0987 9.94296) scale(6.43968 3.20933)">
            <stop offset="0.01" stop-color="#4AD8FF" />
            <stop offset="0.58" stop-color="#49D6FD" />
            <stop offset="0.99" stop-color="#48D5FC" />
        </radialGradient>
        <radialGradient id="paint8_radial_29_314" cx="0" cy="0" r="1" gradientUnits="userSpaceOnUse" gradientTransform="translate(16.4386 15.6175) scale(5.33552 2.65905)">
            <stop offset="0.2" stop-color="#4AD8FF" />
            <stop offset="0.5" stop-color="#52D8FD" />
            <stop offset="0.79" stop-color="#57D8FC" />
            <stop offset="0.99" stop-color="#59D9FC" />
        </radialGradient>
        <radialGradient id="paint9_radial_29_314" cx="0" cy="0" r="1" gradientUnits="userSpaceOnUse" gradientTransform="translate(12.4035 23.1043) scale(15.4545 7.70202)">
            <stop stop-color="white" />
            <stop offset="1" stop-color="#38D4FF" />
        </radialGradient>
        <linearGradient id="paint10_linear_29_314" x1="15.222" y1="21.7938" x2="27.6872" y2="21.7938" gradientUnits="userSpaceOnUse">
            <stop stop-color="white" />
            <stop offset="1" stop-color="#38D4FF" />
        </linearGradient>
        <linearGradient id="paint11_linear_29_314" x1="6.16742" y1="6.59786" x2="23.3108" y2="6.59786" gradientUnits="userSpaceOnUse">
            <stop stop-color="white" />
            <stop offset="1" stop-color="#38D4FF" />
        </linearGradient>
        <radialGradient id="paint12_radial_29_314" cx="0" cy="0" r="1" gradientUnits="userSpaceOnUse" gradientTransform="translate(24.9682 28.3906) rotate(15.9663) scale(9.66505 10.818)">
            <stop offset="0.01" stop-color="#4FD6FB" />
            <stop offset="0.1" stop-color="#49CBEF" />
            <stop offset="0.27" stop-color="#3FBCDE" />
            <stop offset="0.43" stop-color="#38AFD0" />
            <stop offset="0.59" stop-color="#33A7C7" />
            <stop offset="0.75" stop-color="#30A2C1" />
            <stop offset="0.9" stop-color="#2FA0BF" />
        </radialGradient>
        <radialGradient id="paint13_radial_29_314" cx="0" cy="0" r="1" gradientUnits="userSpaceOnUse" gradientTransform="translate(25.7318 21.8957) rotate(15.9663) scale(3.73625 4.18195)">
            <stop offset="0.01" stop-color="#4AD8FF" />
            <stop offset="0.21" stop-color="#61DCFE" />
            <stop offset="0.53" stop-color="#80E2FD" />
            <stop offset="0.8" stop-color="#93E5FC" />
            <stop offset="0.99" stop-color="#9AE9FF" />
        </radialGradient>
        <radialGradient id="paint14_radial_29_314" cx="0" cy="0" r="1" gradientUnits="userSpaceOnUse" gradientTransform="translate(29.244 23.6118) rotate(15.9663) scale(3.78492 4.23641)">
            <stop offset="0.01" stop-color="#5EDCFF" />
            <stop offset="0.12" stop-color="#61DDFF" />
            <stop offset="0.64" stop-color="#6CDEFD" />
            <stop offset="0.99" stop-color="#70DEFC" />
        </radialGradient>
        <radialGradient id="paint15_radial_29_314" cx="0" cy="0" r="1" gradientUnits="userSpaceOnUse" gradientTransform="translate(27.1788 29.0672) rotate(15.9663) scale(3.26854 3.65845)">
            <stop offset="0.01" stop-color="#4FD6FB" />
            <stop offset="0.21" stop-color="#4BCFF4" />
            <stop offset="0.5" stop-color="#42BFE2" />
            <stop offset="0.85" stop-color="#31A3C3" />
            <stop offset="0.9" stop-color="#2FA0BF" />
        </radialGradient>
    </defs>
</svg>
