<svg width="58" height="56" viewBox="0 0 58 56" fill="none" xmlns="http://www.w3.org/2000/svg">
<path d="M51.5599 0.152583C51.2246 0.429372 51.1407 0.831973 51.1324 2.14043C51.1324 3.32307 51.1407 3.38597 51.3754 3.77599C51.5766 4.11569 51.6772 4.19118 51.9706 4.19118C52.264 4.19118 52.3646 4.11569 52.5657 3.77599C52.8004 3.38597 52.8088 3.31049 52.8088 2.17817C52.8088 1.52394 52.7669 0.844554 52.7082 0.668416C52.5238 0.0645143 51.9706 -0.187111 51.5599 0.152583Z" fill="#DAE9FF"/>
<path d="M9.73747 1.74518C8.51381 1.99575 7.54371 2.79303 6.99251 4.00034L6.70589 4.63817V9.82049C6.70589 13.6816 6.73896 15.1737 6.8492 15.6862C7.72009 19.7751 10.1013 23.0439 13.4856 24.798C14.6211 25.3902 15.8888 25.8344 16.881 25.9939C17.2889 26.0622 17.7298 26.1419 17.8731 26.1761L18.1157 26.2217V34.9918C18.1157 40.1741 18.1598 43.8643 18.2149 44.0238C18.5125 44.8325 19.4165 45.0489 20.0008 44.4566L20.3205 44.1263V40.4702V36.8141H25.7112H31.1129L31.146 40.436C31.1901 43.9213 31.1901 44.0694 31.4436 44.73C32.3696 47.1446 34.2988 48.5455 36.691 48.5455C38.2454 48.5455 39.5352 47.9988 40.6486 46.8598C41.2659 46.2334 42.0376 44.7983 44.1322 40.4588C45.1023 38.4428 45.2456 38.2378 45.8188 37.9303C47.3401 37.1216 49.1701 38.4087 48.9496 40.1285C48.8835 40.6183 45.5542 47.5432 44.8708 48.6025C44.2314 49.5934 42.8754 50.9032 41.8392 51.5524C35.3792 55.5388 27.2325 51.0513 26.8576 43.3062C26.7695 41.5295 26.56 41.1422 25.6671 41.1422C25.3694 41.1422 25.182 41.2333 24.9395 41.4725C24.6418 41.7914 24.6198 41.8598 24.6198 42.7823C24.6198 44.2288 24.8072 45.3906 25.2702 46.7915C25.9647 48.9328 27.2655 50.9487 28.7979 52.2586C29.5144 52.885 29.5475 52.9306 29.2829 52.9647C28.7758 53.0331 26.9899 52.5319 26.0639 52.0763C25.5789 51.8371 24.8513 51.4043 24.4434 51.1082C24.0465 50.8235 23.5946 50.5957 23.4402 50.5957C23.0434 50.5957 22.5804 50.8804 22.437 51.2221C22.1284 51.9283 22.3489 52.3725 23.3631 53.1014C26.108 55.0604 29.6798 55.7894 32.8436 55.0263C33.3177 54.9124 33.5712 54.9238 34.387 55.0946C36.1949 55.4705 38.6863 55.3224 40.384 54.7301C42.9636 53.8417 45.3668 51.9624 46.7779 49.7414C47.0866 49.2403 48.2 47.0762 49.2362 44.9236L51.1324 41.0169V39.9121C51.1324 38.9098 51.0993 38.739 50.7796 38.0442C49.7213 35.7207 47.2078 34.764 44.97 35.8232C44.6503 35.9713 44.2093 36.2674 43.9888 36.4724L43.581 36.8369L43.1731 36.4724C41.4974 34.9462 38.8186 35.0601 37.2753 36.723C36.8233 37.2127 36.4044 37.9645 35.0925 40.6069C33.6043 43.6138 33.461 43.8643 33.3948 43.5227C33.3618 43.329 33.3287 39.354 33.3287 34.6956V26.2217L33.5822 26.1761C33.7145 26.1419 34.1445 26.0622 34.5413 25.9939C38.8627 25.2308 42.7983 21.6886 44.1101 17.3833C44.6944 15.4812 44.7054 15.2875 44.7605 10.2077C44.8156 4.80901 44.7826 4.44454 44.077 3.37391C43.3495 2.29189 42.2801 1.71101 40.9903 1.71101C39.4801 1.69962 38.2674 2.47412 37.606 3.87506L37.2422 4.63817L37.1871 9.53574C37.132 13.8297 37.0989 14.5017 36.9335 14.9459C36.4264 16.2785 35.5666 17.258 34.3319 17.8844C33.5382 18.283 33.45 18.3058 32.1822 18.3514L30.8704 18.3856L31.2672 17.8275C32.3696 16.2671 32.7114 15.0142 32.6452 12.7249C32.6011 11.3695 32.546 11.0164 32.3145 10.3672C31.2782 7.51976 28.9412 5.69741 26.108 5.52656C23.1095 5.34433 20.2984 7.20085 19.2291 10.0597C18.6669 11.5403 18.5346 13.5791 18.9094 15.1737C19.0858 15.9254 19.67 17.201 20.133 17.8161L20.5409 18.3628H19.4496C18.0275 18.3628 17.1456 18.0894 16.2195 17.3605C15.4148 16.7227 14.7975 15.8343 14.4888 14.8547C14.2683 14.1827 14.2573 13.8752 14.2573 9.72937C14.2573 4.79762 14.2132 4.42176 13.5407 3.36252C12.747 2.13243 11.1485 1.44905 9.73747 1.74518ZM11.2698 4.22814C11.4241 4.33065 11.6446 4.56983 11.7659 4.74067C11.9864 5.03681 11.9974 5.23043 12.0635 9.96855C12.1186 14.6383 12.1297 14.9231 12.3612 15.5495C13.0667 17.5199 14.3124 19.012 15.9109 19.8207C17.5865 20.6635 17.2778 20.6407 25.7332 20.6407C33.2846 20.6407 33.2956 20.6407 34.1665 20.3788C36.4815 19.6954 38.2784 17.9186 39.0281 15.5837L39.3257 14.6611L39.3919 9.82049C39.458 4.50149 39.4249 4.68373 40.1525 4.21675C40.8911 3.73838 41.7289 3.94339 42.3022 4.74067C42.5227 5.03681 42.5337 5.21904 42.5668 9.17127C42.5888 11.7567 42.5557 13.7158 42.4786 14.4333C42.214 16.7796 41.299 18.8411 39.7887 20.504C37.8595 22.5997 35.6768 23.6818 32.8547 23.9323C31.8846 24.0121 31.7302 24.0576 31.4767 24.331L31.179 24.6271L31.146 29.5816L31.1129 34.5362H25.7222H20.3205V29.6955C20.3205 24.3993 20.3094 24.331 19.6921 24.0804C19.5267 24.0121 18.9425 23.9323 18.3913 23.8982C13.7502 23.602 9.83669 19.9118 9.02091 15.0711C8.76736 13.6247 8.77839 5.40128 9.03194 4.86596C9.4288 4.00034 10.5422 3.69282 11.2698 4.22814ZM26.8797 7.94118C28.2797 8.32843 29.4152 9.30795 30.0546 10.6975C30.3743 11.4037 30.4074 11.5859 30.4404 12.8046C30.4735 13.9208 30.4515 14.2739 30.253 14.9345C29.9443 15.9937 29.2168 16.9846 28.3459 17.5769C27.3868 18.2147 26.6923 18.3969 25.4466 18.34C24.5426 18.3058 24.3332 18.2489 23.6056 17.873C21.6213 16.8707 20.6181 14.7067 20.9598 12.1782C21.1252 10.9936 21.5662 10.0483 22.3268 9.251C23.5505 7.99813 25.2482 7.50838 26.8797 7.94118ZM41.4203 37.9872C41.6628 38.1239 41.9715 38.4087 42.1148 38.6137L42.3573 39.0009L40.9793 41.837C39.5021 44.8894 39.1273 45.4475 38.2123 45.9259C37.4737 46.3131 36.1949 46.3815 35.5114 46.0626L35.0154 45.8348L36.7351 42.3267C37.6832 40.3905 38.532 38.6934 38.6202 38.5453C38.8076 38.2492 39.3588 37.8734 39.8108 37.7253C40.2297 37.5772 40.9021 37.6911 41.4203 37.9872Z" fill="#DAE9FF"/>
<path d="M46.8484 5.14677C46.1394 5.36471 45.8981 5.85089 46.2903 6.27839C46.607 6.61368 47.135 6.70589 48.7189 6.70589C50.0764 6.70589 50.1669 6.6975 50.6346 6.4628C51.0418 6.26162 51.1323 6.16103 51.1323 5.86765C51.1323 5.57427 51.0418 5.47368 50.6346 5.2725C50.1669 5.0378 50.0915 5.02942 48.6736 5.02942C47.7535 5.0378 47.0747 5.07971 46.8484 5.14677Z" fill="#DAE9FF"/>
<path d="M54.062 5.2725C53.7225 5.47368 53.6471 5.57427 53.6471 5.86765C53.6471 6.16103 53.7225 6.26162 54.062 6.4628C54.4518 6.6975 54.5272 6.70589 55.6589 6.70589C56.9791 6.70589 57.4192 6.61368 57.6833 6.27839C58.0228 5.8425 57.7839 5.31442 57.1677 5.13C56.9917 5.07133 56.3127 5.02942 55.6589 5.02942C54.5272 5.02942 54.4518 5.0378 54.062 5.2725Z" fill="#DAE9FF"/>
<path d="M51.6688 6.78986C51.5682 6.86495 51.409 7.12023 51.3084 7.34549C51.1575 7.69087 51.1324 7.94616 51.1324 9.14751C51.1324 10.7093 51.2246 11.2349 51.5599 11.5502C51.9957 11.9557 52.5238 11.6703 52.7082 10.9345C52.7669 10.7243 52.8088 9.91337 52.8088 9.13249C52.8088 7.79599 52.7921 7.69087 52.5825 7.25538C52.331 6.77484 51.9538 6.57963 51.6688 6.78986Z" fill="#DAE9FF"/>
<path d="M5.45692 40.1819C5.12162 40.5118 5.0378 40.9917 5.02942 42.5513C5.02942 43.9609 5.0378 44.0359 5.27251 44.5008C5.61618 45.2056 6.11912 45.2056 6.4628 44.5008C6.69751 44.0359 6.70589 43.9459 6.70589 42.5963C6.70589 41.8165 6.66398 41.0067 6.6053 40.7967C6.42089 40.0769 5.86765 39.777 5.45692 40.1819Z" fill="#DAE9FF"/>
<path d="M0.61705 45.1468C0.0302066 45.3647 -0.16957 45.8509 0.155067 46.2784C0.417274 46.6137 0.854285 46.7059 2.16532 46.7059C3.28906 46.7059 3.36398 46.6975 3.75104 46.4628C4.33789 46.1191 4.33789 45.6162 3.75104 45.2725C3.36398 45.0378 3.30155 45.0294 2.12786 45.0294C1.36621 45.0378 0.804341 45.0797 0.61705 45.1468Z" fill="#DAE9FF"/>
<path d="M7.20206 45.2725C6.7961 45.4737 6.70589 45.5743 6.70589 45.8677C6.70589 46.161 6.7961 46.2616 7.20206 46.4628C7.66817 46.6975 7.75838 46.7059 9.11158 46.7059C10.6903 46.7059 11.2166 46.6137 11.5323 46.2784C11.803 45.985 11.803 45.7503 11.5323 45.4569C11.2166 45.1216 10.6903 45.0294 9.11158 45.0294C7.75838 45.0294 7.66817 45.0378 7.20206 45.2725Z" fill="#DAE9FF"/>
<path d="M5.56589 47.6139C5.4653 47.6762 5.30604 47.8882 5.20545 48.0753C5.05457 48.3621 5.02942 48.5741 5.02942 49.5717C5.02942 50.8686 5.12162 51.3051 5.45692 51.567C5.7503 51.7914 5.98501 51.7914 6.27839 51.567C6.61368 51.3051 6.70589 50.8686 6.70589 49.5592C6.70589 48.4494 6.68912 48.3621 6.47957 48.0004C6.2281 47.6014 5.85089 47.4393 5.56589 47.6139Z" fill="#DAE9FF"/>
</svg>
