<svg width="56" height="56" viewBox="0 0 56 56" fill="none" xmlns="http://www.w3.org/2000/svg">
    <path d="M51.3345 28V47.6212C51.3345 49.0271 50.2898 50.1667 49.0011 50.1667H7.00112C5.71245 50.1667 4.66779 49.0271 4.66779 47.6212V28L28.0011 43.1667L51.3345 28Z" stroke="#DAE9FF" stroke-width="3" stroke-linejoin="round" />
    <path d="M51.3345 27.7457L39.6678 19.7052M4.66779 27.7457L16.3345 19.7052L4.66779 27.7457Z" stroke="#DAE9FF" stroke-width="3" stroke-linecap="round" stroke-linejoin="round" />
    <path d="M39.6689 5.83228H16.3355V34.316C16.3355 35.1058 16.735 35.842 17.3972 36.2724L26.7305 42.339C27.5038 42.8416 28.5006 42.8416 29.2738 42.339L38.6072 36.2724C39.2694 35.842 39.6689 35.1058 39.6689 34.316V5.83228Z" stroke="#DAE9FF" stroke-width="3" stroke-linejoin="round" />
    <path d="M23.3355 15.1646H28.0022" stroke="#DAE9FF" stroke-width="3" stroke-linecap="round" stroke-linejoin="round" />
    <path d="M23.3355 22.1646H32.6688" stroke="#DAE9FF" stroke-width="3" stroke-linecap="round" stroke-linejoin="round" />
</svg>
