<svg width="56" height="56" viewBox="0 0 56 56" fill="none" xmlns="http://www.w3.org/2000/svg">
    <path d="M42.8018 17.7007C44.2606 19.7929 45.2871 22.2089 45.7519 24.8193H51.3348V31.183H45.7519C45.2871 33.7934 44.2606 36.2095 42.8018 38.3017L46.7505 42.2505L42.2507 46.7502L38.3019 42.8015C36.2097 44.2603 33.7937 45.2869 31.1833 45.7517V51.3345H24.8196V45.7517C22.2092 45.2869 19.7931 44.2603 17.7009 42.8015L13.7521 46.7502L9.25238 42.2505L13.2011 38.3017C11.7423 36.2095 10.7158 33.7934 10.251 31.183H4.66809V24.8193H10.251C10.7158 22.2089 11.7423 19.7929 13.2011 17.7007L9.25238 13.7519L13.7521 9.25214L17.7009 13.2008C19.7931 11.742 22.2092 10.7155 24.8196 10.2507V4.66785H31.1833V10.2507C33.7937 10.7155 36.2097 11.742 38.3019 13.2008L42.2507 9.25214L46.7505 13.7519L42.8018 17.7007Z" stroke="#DAE9FF" stroke-width="3" stroke-linejoin="round"/>
    <path d="M28.0014 33.8345C31.2231 33.8345 33.8348 31.2228 33.8348 28.0012C33.8348 24.7795 31.2231 22.1678 28.0014 22.1678C24.7798 22.1678 22.1681 24.7795 22.1681 28.0012C22.1681 31.2228 24.7798 33.8345 28.0014 33.8345Z" stroke="#DAE9FF" stroke-width="3" stroke-linejoin="round"/>
    </svg>
