<svg width="56" height="57" viewBox="0 0 56 57" fill="none" xmlns="http://www.w3.org/2000/svg">
    <path d="M5.83337 19.8334H50.1667L45.2667 50.1667H10.7334L5.83337 19.8334Z" stroke="#DAE9FF" stroke-width="3" stroke-linecap="round" stroke-linejoin="round"/>
    <path d="M40.8334 19.8334C40.8334 12.1014 35.0877 5.83337 28.0001 5.83337C20.9125 5.83337 15.1667 12.1014 15.1667 19.8334" stroke="#DAE9FF" stroke-width="3" stroke-linecap="round" stroke-linejoin="round"/>
    <path d="M19.8333 32.6667C21.122 32.6667 22.1667 31.622 22.1667 30.3333C22.1667 29.0447 21.122 28 19.8333 28C18.5447 28 17.5 29.0447 17.5 30.3333C17.5 31.622 18.5447 32.6667 19.8333 32.6667Z" fill="#DAE9FF"/>
    <path d="M21 38.5C21 38.5 23.3333 42 28 42C32.6667 42 35 38.5 35 38.5" stroke="#DAE9FF" stroke-width="3" stroke-linecap="round" stroke-linejoin="round"/>
    <path d="M36.1667 32.6667C37.4554 32.6667 38.5 31.622 38.5 30.3333C38.5 29.0447 37.4554 28 36.1667 28C34.878 28 33.8334 29.0447 33.8334 30.3333C33.8334 31.622 34.878 32.6667 36.1667 32.6667Z" fill="#DAE9FF"/>
    </svg>
