<svg width="752" height="66" viewBox="0 0 752 66" fill="none" xmlns="http://www.w3.org/2000/svg">
<mask id="path-1-inside-1_23_42" fill="white">
<path fill-rule="evenodd" clip-rule="evenodd" d="M46.41 0.61496H0V33.3078C0 51.1163 14.4366 65.5529 32.245 65.5529H719.755C737.563 65.5529 752 51.1162 752 33.3078V0.61496H705.59L674.126 27.883H376H77.8745L46.41 0.61496Z"/>
</mask>
<path fill-rule="evenodd" clip-rule="evenodd" d="M46.41 0.61496H0V33.3078C0 51.1163 14.4366 65.5529 32.245 65.5529H719.755C737.563 65.5529 752 51.1162 752 33.3078V0.61496H705.59L674.126 27.883H376H77.8745L46.41 0.61496Z" fill="#113C57" fill-opacity="0.4"/>
<path d="M0 0.61496V-0.536648H-1.15161V0.61496H0ZM46.41 0.61496L47.1642 -0.255314L46.8396 -0.536648H46.41V0.61496ZM752 0.61496H753.152V-0.536648H752V0.61496ZM705.59 0.61496V-0.536648H705.16L704.836 -0.255313L705.59 0.61496ZM674.126 27.883V29.0346H674.555L674.88 28.7533L674.126 27.883ZM77.8745 27.883L77.1203 28.7533L77.4449 29.0346H77.8745V27.883ZM0 1.76657H46.41V-0.536648H0V1.76657ZM1.15161 33.3078V0.61496H-1.15161V33.3078H1.15161ZM32.245 64.4012C15.0726 64.4012 1.15161 50.4802 1.15161 33.3078H-1.15161C-1.15161 51.7523 13.8005 66.7045 32.245 66.7045V64.4012ZM719.755 64.4012H32.245V66.7045H719.755V64.4012ZM750.848 33.3078C750.848 50.4802 736.927 64.4012 719.755 64.4012V66.7045C738.199 66.7045 753.152 51.7523 753.152 33.3078H750.848ZM750.848 0.61496V33.3078H753.152V0.61496H750.848ZM705.59 1.76657H752V-0.536648H705.59V1.76657ZM674.88 28.7533L706.344 1.48523L704.836 -0.255313L673.371 27.0127L674.88 28.7533ZM376 29.0346H674.126V26.7314H376V29.0346ZM77.8745 29.0346H376V26.7314H77.8745V29.0346ZM45.6558 1.48523L77.1203 28.7533L78.6287 27.0127L47.1642 -0.255314L45.6558 1.48523Z" fill="#113C57" mask="url(#path-1-inside-1_23_42)"/>
</svg>
